HIERARCHY
ROOT Hips
{
	OFFSET 0.000000 0.000000 0.000000 
	CHANNELS 6 Xposition Yposition Zposition Zrotation Yrotation Xrotation
	JOINT LeftUpLeg
	{
		OFFSET 1.363060 -1.794630 0.839290 
		CHANNELS 3 Zrotation Yrotation Xrotation
		JOINT LeftLeg
		{
			OFFSET 2.448110 -6.726130 0.000000 
			CHANNELS 3 Zrotation Yrotation Xrotation
			JOINT LeftFoot
			{
				OFFSET 2.562200 -7.039590 0.000000 
				CHANNELS 3 Zrotation Yrotation Xrotation
				JOINT LeftToeBase
				{
					OFFSET 0.157640 -0.433110 2.322550 
					CHANNELS 3 Zrotation Yrotation Xrotation
					End Site
					{
						OFFSET 0.000000 0.000000 0.000000 
					}
				}
			}
		}
	}
	JOINT RightUpLeg
	{
		OFFSET -1.305520 -1.794630 0.839290 
		CHANNELS 3 Zrotation Yrotation Xrotation
		JOINT RightLeg
		{
			OFFSET -2.542530 -6.985550 0.000000 
			CHANNELS 3 Zrotation Yrotation Xrotation
			JOINT RightFoot
			{
				OFFSET -2.568260 -7.056230 0.000000 
				CHANNELS 3 Zrotation Yrotation Xrotation
				JOINT RightToeBase
				{
					OFFSET -0.164730 -0.452590 2.363150 
					CHANNELS 3 Zrotation Yrotation Xrotation
					End Site
					{
						OFFSET 0.000000 0.000000 0.000000 
					}
				}
			}
		}
	}
	JOINT Spine
	{
		OFFSET 0.028270 2.035590 -0.193380 
		CHANNELS 3 Zrotation Yrotation Xrotation
		JOINT Spine1
		{
			OFFSET 0.056720 2.048850 -0.042750 
			CHANNELS 3 Zrotation Yrotation Xrotation
			JOINT Neck1
			{
				OFFSET -0.054170 1.746240 0.172020 
				CHANNELS 3 Zrotation Yrotation Xrotation
				JOINT Head
				{
					OFFSET 0.104070 1.761360 -0.123970 
					CHANNELS 3 Zrotation Yrotation Xrotation
					End Site
					{
						OFFSET 0.000000 0.000000 0.000000 
					}
				}
			}
			JOINT LeftArm
			{
				OFFSET 3.362410 1.200890 -0.311210 
				CHANNELS 3 Zrotation Yrotation Xrotation
				JOINT LeftForeArm
				{
					OFFSET 4.983000 -0.000000 -0.000000 
					CHANNELS 3 Zrotation Yrotation Xrotation
					JOINT LeftHand
					{
						OFFSET 3.483560 -0.000000 -0.000000 
						CHANNELS 3 Zrotation Yrotation Xrotation
						JOINT LeftHandIndex1
						{
							OFFSET 0.715260 -0.000000 -0.000000 
							CHANNELS 3 Zrotation Yrotation Xrotation
							End Site
							{
								OFFSET 0.000000 0.000000 0.000000 
							}
						}
					}
				}
			}
			JOINT RightArm
			{
				OFFSET -3.136600 1.374050 -0.404650 
				CHANNELS 3 Zrotation Yrotation Xrotation
				JOINT RightForeArm
				{
					OFFSET -5.241900 -0.000000 -0.000000 
					CHANNELS 3 Zrotation Yrotation Xrotation
					JOINT RightHand
					{
						OFFSET -3.444170 -0.000000 -0.000000 
						CHANNELS 3 Zrotation Yrotation Xrotation
						JOINT RightHandIndex1
						{
							OFFSET -0.622530 -0.000000 -0.000000 
							CHANNELS 3 Zrotation Yrotation Xrotation
							End Site
							{
								OFFSET 0.000000 0.000000 0.000000 
							}
						}
					}
				}
			}
		}
	}
}
MOTION
Frames: 7
Frame Time: 0.041667
6.270451 10.620796 17.305613 -7.031955 9.710932 63.737820 -1.822745 -10.512239 -1.560513 -3.469161 3.277335 10.886092 6.689878 -16.539259 30.284806 1.554000 7.867800 22.313400 16.527338 19.352027 -148.908839 -16.753405 -19.583122 83.195612 -2.633449 9.001795 26.392100 -0.034200 -1.194400 3.283800 2.003542 2.110609 -2.147823 3.545530 1.108749 -16.455701 31.983336 -39.501653 -21.787976 27.275300 -11.987200 2.034300 -35.211948 -47.622283 29.487280 18.628101 -15.462694 -6.891814 1.999064 4.781759 -22.725627 -7.125000 0.000000 0.000000 22.238389 42.867338 78.512814 -24.169997 27.172696 -8.130488 3.083437 4.621235 -28.761972 7.125000 0.000000 0.000000 
6.276975 10.638379 17.275644 -7.150249 9.433423 63.933644 -1.983484 -10.402374 -1.727755 -3.473389 3.282222 10.847986 6.683051 -16.595072 29.943763 1.520600 7.786500 22.067500 16.788130 19.648931 -148.865594 -16.550516 -19.580746 82.644672 -2.691647 9.241936 26.872203 -0.046800 -1.396700 3.841000 1.932831 2.224348 -2.089345 3.348158 1.142666 -16.374123 31.821110 -39.560665 -21.575092 27.200800 -12.032100 2.070700 -34.456628 -47.628439 29.479204 18.618578 -15.447790 -6.810230 1.958341 4.764470 -22.956145 -7.125000 0.000000 0.000000 21.962108 43.023562 78.336691 -23.776471 26.943879 -7.978745 3.074433 4.750316 -29.044905 7.125000 0.000000 0.000000 
6.283942 10.655741 17.246007 -7.245971 9.178914 64.111585 -2.138059 -10.302570 -1.877908 -3.478532 3.281758 10.800094 6.678295 -16.665623 29.626370 1.493300 7.719700 21.865800 17.057321 19.911336 -148.811111 -16.353560 -19.576624 82.108587 -2.748660 9.472841 27.348689 -0.060700 -1.589700 4.373000 1.862124 2.327567 -2.029801 3.139314 1.169456 -16.287504 31.656604 -39.617128 -21.337504 27.128100 -12.082500 2.123600 -33.743381 -47.670991 29.450734 18.605982 -15.423613 -6.729413 1.912077 4.750335 -23.303209 -7.125000 0.000000 0.000000 21.718034 43.167702 78.086510 -23.321034 26.647573 -7.803714 3.086887 4.862392 -29.061945 7.125000 0.000000 0.000000 
6.291130 10.672661 17.216702 -7.310657 8.946251 64.266517 -2.292165 -10.223296 -2.007099 -3.484718 3.279979 10.751657 6.675245 -16.754757 29.324392 1.469700 7.661100 21.689200 17.340542 20.133379 -148.745295 -16.163394 -19.570505 81.591242 -2.805237 9.700648 27.822170 -0.075300 -1.770000 4.870400 1.793465 2.421178 -1.967420 2.927804 1.191000 -16.191363 31.489638 -39.673396 -21.081840 27.050300 -12.137300 2.186900 -33.089260 -47.763165 29.400215 18.588807 -15.384188 -6.655539 1.863314 4.744431 -23.724819 -7.125000 0.000000 0.000000 21.484755 43.292949 77.731618 -22.817232 26.305405 -7.612866 3.120064 4.955905 -28.825648 7.125000 0.000000 0.000000 
6.297987 10.689802 17.187396 -7.347139 8.741040 64.416549 -2.431312 -10.165075 -2.138090 -3.491804 3.278556 10.707642 6.676629 -16.865134 29.053700 1.453100 7.619500 21.564300 17.628767 20.321067 -148.679631 -15.978729 -19.561506 81.085907 -2.859375 9.908485 28.287855 -0.091500 -1.951200 5.370900 1.728678 2.514458 -1.900205 2.717194 1.212402 -16.071953 31.330268 -39.745362 -20.825207 26.966300 -12.197500 2.261600 -32.493823 -47.919099 29.342573 18.564753 -15.321459 -6.590730 1.817610 4.750589 -24.148680 -7.125000 0.000000 0.000000 21.209974 43.386702 77.236725 -22.292245 25.965739 -7.417002 3.164278 5.038108 -28.406901 7.125000 0.000000 0.000000 
6.304733 10.706721 17.157759 -7.350620 8.552178 64.552705 -2.569787 -10.134569 -2.266337 -3.499892 3.285430 10.684946 6.680579 -16.999492 28.797694 1.443500 7.595400 21.491600 17.914649 20.472412 -148.609969 -15.799586 -19.550382 80.594046 -2.911838 10.105171 28.741602 -0.108100 -2.120400 5.838600 1.668474 2.604184 -1.827744 2.518290 1.233917 -15.936596 31.175049 -39.829677 -20.569369 26.876200 -12.259600 2.347200 -31.953787 -48.124066 29.277023 18.526374 -15.235745 -6.535346 1.775726 4.769946 -24.538024 -7.125000 0.000000 0.000000 20.876387 43.452370 76.590474 -21.779737 25.673339 -7.233622 3.211092 5.116953 -27.868330 7.125000 0.000000 0.000000 
6.311257 10.723752 17.127459 -7.323429 8.375989 64.680944 -2.706638 -10.134112 -2.402833 -3.508724 3.305306 10.695191 6.687754 -17.159709 28.556767 1.441900 7.591400 21.479600 18.189836 20.596441 -148.537911 -15.621924 -19.537013 80.105045 -2.962117 10.296046 29.173342 -0.122200 -2.253800 6.207700 1.613417 2.694415 -1.750024 2.336635 1.258324 -15.786936 31.027794 -39.929395 -20.322081 26.788300 -12.322100 2.442900 -31.466176 -48.370255 29.230171 18.477536 -15.131374 -6.490096 1.735119 4.802572 -24.897271 -7.125000 0.000000 0.000000 20.461283 43.490948 75.768830 -21.298399 25.458332 -7.069077 3.251997 5.201988 -27.264701 7.125000 0.000000 0.000000 
